<?xml version="1.0" encoding="utf-8"?>
<!-- Generator: Adobe Illustrator 16.0.4, SVG Export Plug-In . SVG Version: 6.00 Build 0)  -->
<!DOCTYPE svg PUBLIC "-//W3C//DTD SVG 1.1//EN" "http://www.w3.org/Graphics/SVG/1.1/DTD/svg11.dtd">
<svg version="1.1" id="Layer_1" xmlns="http://www.w3.org/2000/svg" xmlns:xlink="http://www.w3.org/1999/xlink" x="0px" y="0px"
	 width="595.279px" height="841.891px" viewBox="123.306 -123.306 595.279 841.891"
	 enable-background="new 123.306 -123.306 595.279 841.891" xml:space="preserve">
<path fill="none" stroke="#ED1C24" stroke-width="55" stroke-linecap="round" stroke-linejoin="round" stroke-miterlimit="10" d="
	M558.281,212.126l3.321-1.85l3.446-1.613l3.541-1.385l3.643-1.133l3.691-0.897l3.753-0.63l3.791-0.385l3.802-0.134l3.8,0.148
	l3.792,0.386l3.755,0.646l3.689,0.881l3.627,1.149l3.541,1.385l3.446,1.628l3.319,1.849l3.195,2.077l3.044,2.29l2.881,2.486
	l2.714,2.675l2.51,2.849l2.322,3.014l2.108,3.156l1.903,3.305l1.66,3.415l1.433,3.534l1.195,3.627l0.93,3.673l0.691,3.754
	l0.44,3.769l0.173,3.801l-0.078,3.808l-0.323,3.801l-0.598,3.753l-0.851,3.707l-1.077,3.644l-1.338,3.564l-1.581,3.461l-1.804,3.353
	l-2.037,3.225l-0.253,0.387l-2.132,2.879l-2.319,2.746l-2.479,2.588l-2.628,2.44l-2.785,2.234l-2.936,2.077l-3.062,1.888
	l-3.154,1.677l-3.272,1.479l-3.353,1.259l-3.384,1.046l-3.445,0.826l-3.485,0.599l-3.525,0.387l-3.531,0.155l-3.541-0.062
	l34.272,71.915l2.416-0.92l2.479-0.679l2.55-0.446l2.58-0.19l2.574,0.049l2.563,0.291l2.525,0.541l2.471,0.773l2.368,0.999
	l2.272,1.244l2.143,1.431l1.998,1.644l1.833,1.826l1.644,1.983l1.457,2.124l1.235,2.272l1.015,2.368l0.795,2.464l0.56,2.519
	l0.308,2.559l0.062,2.579l-0.188,2.581l-0.418,2.541l-0.677,2.502l-0.905,2.417l-1.125,2.319l-1.337,2.204l-1.551,2.069
	l-1.739,1.896l-1.918,1.739l-2.078,1.549l-2.211,1.339l-2.32,1.108l-2.416,0.904l-1.612,0.449l-2.465,0.504l-2.51,0.259
	l-2.517,0.031l-2.495-0.195l-2.486-0.448l-2.431-0.66l-2.354-0.893l-2.14-1.029l-2.046-1.229l-1.937-1.399l-1.794-1.558l-1.66-1.73
	l-1.495-1.851l-1.321-1.967l-1.141-2.094l-0.339-1.29l-18.854,9.135l-94.035,45.621l-17.364,8.428l1.047,2.445l0.817,2.535
	l0.584,2.598l0.32,2.644l0.08,2.658l-0.175,2.65l-0.439,2.628l-0.677,2.582l-0.913,2.494l-1.148,2.407l-1.369,2.282l-1.582,2.147
	l-1.784,1.982l-1.951,1.802l-2.126,1.612l-2.258,1.402l-2.385,1.194l-2.479,0.944l-2.58,0.706l-2.612,0.474l-2.66,0.214l-2.62-0.039
	l-2.611-0.285l-2.564-0.519l-2.511-0.771l-2.438-0.984l-2.321-1.228l-2.203-1.415l-2.046-1.629l-1.904-1.818l-1.723-1.982
	l-1.534-2.132l-1.314-2.267l-1.102-2.369l-0.881-2.485l-0.63-2.54l-0.401-2.599l-0.165-2.611l0.078-2.628l0.339-2.59l0.582-2.565
	l0.803-2.502l0.213-0.479l1.077-2.387l1.307-2.273l1.504-2.14l1.707-1.998l1.881-1.826l2.046-1.637l2.18-1.454l2.32-1.22
	l-34.148-71.696l-2.273,2.998l-2.447,2.815l-2.644,2.661l-2.816,2.485l-2.967,2.281l-3.124,2.07l-3.257,1.861l-3.368,1.646
	l-3.478,1.415l-3.549,1.164l-3.644,0.938l-3.674,0.69l-3.738,0.435l-3.737,0.188l-3.753-0.062l-3.722-0.309l-3.706-0.559
	l-3.659-0.826l-3.61-1.046l-3.519-1.308l-3.43-1.511l-3.305-1.762l-3.188-1.977l-3.044-2.178l-2.903-2.384l-2.723-2.566
	l-2.565-2.754l-2.353-2.902l-2.156-3.077l-1.951-3.186l-1.738-3.337l-1.495-3.433l-1.275-3.531l-1.031-3.598l-0.794-3.664
	l-0.526-3.714l-0.292-3.737l-0.032-3.753l0.205-3.737l0.472-3.723l0.708-3.674l0.968-3.629l1.188-3.541l1.439-3.469l0.236-0.512
	l1.691-3.353l1.92-3.227l2.125-3.076l2.337-2.951l2.534-2.77l2.707-2.597l2.872-2.415l3.028-2.213l3.171-2.014l3.306-1.786
	l3.398-1.564l3.511-1.314l3.595-1.102l-10.331-21.623l-22.269-46.729l-23.558-49.46l-9.639,4.595l-21.079-5.366l-8.718-19.049
	l6.16-21.882l19.011-8.765l20.308,5.137l6.861,14.408l18.2-8.671l118.858-56.62l18.191-8.655l-7.364-15.422l6.86-20.466
	l18.403-8.553l2.195-1.016l20.189,8.554l9.198,19.341l-6.813,21.512l-5.5,2.613l24.755,51.931l18.853,39.594l6.594,13.825
	l10.183-4.847L558.281,212.126z"/>
<path fill="none" stroke="#FBAF3F" stroke-width="45" stroke-linecap="round" stroke-linejoin="round" stroke-miterlimit="10" d="
	M558.281,212.126l3.321-1.85l3.446-1.613l3.541-1.385l3.643-1.133l3.691-0.897l3.753-0.63l3.791-0.385l3.802-0.134l3.8,0.148
	l3.792,0.386l3.755,0.646l3.689,0.881l3.627,1.149l3.541,1.385l3.446,1.628l3.319,1.849l3.195,2.077l3.044,2.29l2.881,2.486
	l2.714,2.675l2.51,2.849l2.322,3.014l2.108,3.156l1.903,3.305l1.66,3.415l1.433,3.534l1.195,3.627l0.93,3.673l0.691,3.754
	l0.44,3.769l0.173,3.801l-0.078,3.808l-0.323,3.801l-0.598,3.753l-0.851,3.707l-1.077,3.644l-1.338,3.564l-1.581,3.461l-1.804,3.353
	l-2.037,3.225l-0.253,0.387l-2.132,2.879l-2.319,2.746l-2.479,2.588l-2.628,2.44l-2.785,2.234l-2.936,2.077l-3.062,1.888
	l-3.154,1.677l-3.272,1.479l-3.353,1.259l-3.384,1.046l-3.445,0.826l-3.485,0.599l-3.525,0.387l-3.531,0.155l-3.541-0.062
	l34.272,71.915l2.416-0.92l2.479-0.679l2.55-0.446l2.58-0.19l2.574,0.049l2.563,0.291l2.525,0.541l2.471,0.773l2.368,0.999
	l2.272,1.244l2.143,1.431l1.998,1.644l1.833,1.826l1.644,1.983l1.457,2.124l1.235,2.272l1.015,2.368l0.795,2.464l0.56,2.519
	l0.308,2.559l0.062,2.579l-0.188,2.581l-0.418,2.541l-0.677,2.502l-0.905,2.417l-1.125,2.319l-1.337,2.204l-1.551,2.069
	l-1.739,1.896l-1.918,1.739l-2.078,1.549l-2.211,1.339l-2.32,1.108l-2.416,0.904l-1.612,0.449l-2.465,0.504l-2.51,0.259
	l-2.517,0.031l-2.495-0.195l-2.486-0.448l-2.431-0.66l-2.354-0.893l-2.14-1.029l-2.046-1.229l-1.937-1.399l-1.794-1.558l-1.66-1.73
	l-1.495-1.851l-1.321-1.967l-1.141-2.094l-0.339-1.29l-18.854,9.135l-94.035,45.621l-17.364,8.428l1.047,2.445l0.817,2.535
	l0.584,2.598l0.32,2.644l0.08,2.658l-0.175,2.65l-0.439,2.628l-0.677,2.582l-0.913,2.494l-1.148,2.407l-1.369,2.282l-1.582,2.147
	l-1.784,1.982l-1.951,1.802l-2.126,1.612l-2.258,1.402l-2.385,1.194l-2.479,0.944l-2.58,0.706l-2.612,0.474l-2.66,0.214l-2.62-0.039
	l-2.611-0.285l-2.564-0.519l-2.511-0.771l-2.438-0.984l-2.321-1.228l-2.203-1.415l-2.046-1.629l-1.904-1.818l-1.723-1.982
	l-1.534-2.132l-1.314-2.267l-1.102-2.369l-0.881-2.485l-0.63-2.54l-0.401-2.599l-0.165-2.611l0.078-2.628l0.339-2.59l0.582-2.565
	l0.803-2.502l0.213-0.479l1.077-2.387l1.307-2.273l1.504-2.14l1.707-1.998l1.881-1.826l2.046-1.637l2.18-1.454l2.32-1.22
	l-34.148-71.696l-2.273,2.998l-2.447,2.815l-2.644,2.661l-2.816,2.485l-2.967,2.281l-3.124,2.07l-3.257,1.861l-3.368,1.646
	l-3.478,1.415l-3.549,1.164l-3.644,0.938l-3.674,0.69l-3.738,0.435l-3.737,0.188l-3.753-0.062l-3.722-0.309l-3.706-0.559
	l-3.659-0.826l-3.61-1.046l-3.519-1.308l-3.43-1.511l-3.305-1.762l-3.188-1.977l-3.044-2.178l-2.903-2.384l-2.723-2.566
	l-2.565-2.754l-2.353-2.902l-2.156-3.077l-1.951-3.186l-1.738-3.337l-1.495-3.433l-1.275-3.531l-1.031-3.598l-0.794-3.664
	l-0.526-3.714l-0.292-3.737l-0.032-3.753l0.205-3.737l0.472-3.723l0.708-3.674l0.968-3.629l1.188-3.541l1.439-3.469l0.236-0.512
	l1.691-3.353l1.92-3.227l2.125-3.076l2.337-2.951l2.534-2.77l2.707-2.597l2.872-2.415l3.028-2.213l3.171-2.014l3.306-1.786
	l3.398-1.564l3.511-1.314l3.595-1.102l-10.331-21.623l-22.269-46.729l-23.558-49.46l-9.639,4.595l-21.079-5.366l-8.718-19.049
	l6.16-21.882l19.011-8.765l20.308,5.137l6.861,14.408l18.2-8.671l118.858-56.62l18.191-8.655l-7.364-15.422l6.86-20.466
	l18.403-8.553l2.195-1.016l20.189,8.554l9.198,19.341l-6.813,21.512l-5.5,2.613l24.755,51.931l18.853,39.594l6.594,13.825
	l10.183-4.847L558.281,212.126z"/>
<path fill="none" stroke="#FFF100" stroke-width="35" stroke-linecap="round" stroke-linejoin="round" stroke-miterlimit="10" d="
	M558.281,212.125l3.321-1.85l3.446-1.613l3.541-1.385l3.643-1.133l3.691-0.897l3.753-0.63l3.791-0.386l3.802-0.133l3.8,0.148
	l3.792,0.386l3.755,0.646l3.689,0.881l3.627,1.149l3.541,1.385l3.446,1.629l3.319,1.849l3.195,2.078l3.044,2.29l2.881,2.486
	l2.714,2.675l2.51,2.849l2.322,3.014l2.108,3.156l1.903,3.305l1.66,3.415l1.433,3.533l1.195,3.627l0.93,3.673l0.691,3.754
	l0.44,3.769l0.173,3.801l-0.078,3.808l-0.323,3.8l-0.598,3.753l-0.851,3.707l-1.077,3.643l-1.338,3.564l-1.581,3.461l-1.804,3.354
	l-2.037,3.225l-0.253,0.386l-2.132,2.88l-2.319,2.746l-2.479,2.588l-2.628,2.44l-2.785,2.235l-2.936,2.076l-3.062,1.889
	l-3.154,1.676l-3.272,1.479l-3.353,1.259l-3.384,1.047l-3.445,0.826l-3.485,0.598l-3.525,0.386l-3.531,0.156l-3.541-0.062
	l34.272,71.917l2.416-0.92l2.479-0.679l2.55-0.446l2.58-0.189l2.574,0.049l2.563,0.29l2.525,0.542l2.471,0.773l2.368,0.999
	l2.272,1.243l2.143,1.431l1.998,1.644l1.833,1.827l1.644,1.982l1.457,2.125l1.235,2.272l1.015,2.368l0.795,2.463l0.56,2.519
	l0.308,2.559l0.062,2.579l-0.188,2.581l-0.418,2.541l-0.677,2.502l-0.905,2.417l-1.125,2.319l-1.337,2.204l-1.551,2.069
	l-1.739,1.896l-1.918,1.738l-2.078,1.549l-2.211,1.339l-2.32,1.109l-2.416,0.903l-1.612,0.449l-2.465,0.504l-2.51,0.26l-2.517,0.03
	l-2.495-0.195l-2.486-0.448l-2.431-0.66l-2.354-0.893l-2.14-1.029l-2.046-1.229l-1.937-1.398l-1.794-1.558l-1.66-1.73l-1.495-1.851
	l-1.321-1.968l-1.141-2.094l-0.339-1.289l-18.854,9.134l-94.035,45.621l-17.364,8.428l1.047,2.446l0.817,2.535l0.584,2.597
	l0.32,2.645l0.08,2.657l-0.175,2.651l-0.439,2.628l-0.677,2.581l-0.913,2.494l-1.148,2.407l-1.369,2.282l-1.582,2.147l-1.784,1.983
	l-1.951,1.801l-2.126,1.612l-2.258,1.402l-2.385,1.194l-2.479,0.944l-2.58,0.707l-2.612,0.474l-2.66,0.213l-2.62-0.039l-2.611-0.285
	l-2.564-0.519l-2.511-0.771l-2.438-0.982l-2.321-1.229l-2.203-1.415l-2.046-1.629l-1.904-1.818l-1.723-1.982l-1.534-2.132
	l-1.314-2.267l-1.102-2.368l-0.881-2.485l-0.63-2.541l-0.401-2.598l-0.165-2.611l0.078-2.628l0.339-2.59l0.582-2.565l0.803-2.502
	l0.213-0.479l1.077-2.386l1.307-2.272l1.504-2.141l1.707-1.999l1.881-1.826l2.046-1.637l2.18-1.453l2.32-1.221l-34.148-71.696
	l-2.273,2.998l-2.447,2.815l-2.644,2.661l-2.816,2.485l-2.967,2.281l-3.124,2.07l-3.257,1.861l-3.368,1.646l-3.478,1.416
	l-3.549,1.163l-3.644,0.938l-3.674,0.691l-3.738,0.434l-3.737,0.188l-3.753-0.062l-3.722-0.308l-3.706-0.558l-3.659-0.827
	l-3.61-1.046l-3.519-1.309l-3.43-1.51l-3.305-1.763l-3.188-1.977l-3.044-2.178l-2.903-2.384l-2.723-2.566l-2.565-2.754l-2.353-2.902
	l-2.156-3.077l-1.951-3.186l-1.738-3.337l-1.495-3.432l-1.275-3.532l-1.031-3.597l-0.794-3.665l-0.526-3.716l-0.292-3.737
	l-0.032-3.753l0.205-3.737l0.472-3.723l0.708-3.674l0.968-3.629l1.188-3.541l1.439-3.469l0.236-0.511l1.691-3.354l1.92-3.227
	l2.125-3.076l2.337-2.951l2.534-2.77l2.707-2.597l2.872-2.414l3.028-2.213l3.171-2.014l3.306-1.787l3.398-1.564l3.511-1.313
	l3.595-1.103l-10.331-21.622l-22.269-46.729l-23.558-49.46l-9.639,4.595l-21.079-5.365l-8.718-19.05l6.16-21.882l19.011-8.765
	l20.308,5.137l6.861,14.408l18.2-8.672l118.858-56.62l18.191-8.655l-7.364-15.421l6.86-20.466l18.403-8.553l2.195-1.016
	l20.189,8.554l9.198,19.341l-6.813,21.512l-5.5,2.612l24.755,51.931l18.853,39.594l6.594,13.824l10.183-4.846L558.281,212.125z"/>
<path fill="none" stroke="#38B449" stroke-width="25" stroke-linecap="round" stroke-linejoin="round" stroke-miterlimit="10" d="
	M558.281,212.125l3.321-1.85l3.446-1.613l3.541-1.385l3.643-1.133l3.691-0.897l3.753-0.63l3.791-0.386l3.802-0.133l3.8,0.148
	l3.792,0.386l3.755,0.646l3.689,0.881l3.627,1.149l3.541,1.385l3.446,1.629l3.319,1.849l3.195,2.078l3.044,2.29l2.881,2.486
	l2.714,2.675l2.51,2.849l2.322,3.014l2.108,3.156l1.903,3.305l1.66,3.415l1.433,3.533l1.195,3.627l0.93,3.673l0.691,3.754
	l0.44,3.769l0.173,3.801l-0.078,3.808l-0.323,3.8l-0.598,3.753l-0.851,3.707l-1.077,3.643l-1.338,3.564l-1.581,3.461l-1.804,3.354
	l-2.037,3.225l-0.253,0.386l-2.132,2.88l-2.319,2.746l-2.479,2.588l-2.628,2.44l-2.785,2.235l-2.936,2.076l-3.062,1.889
	l-3.154,1.676l-3.272,1.479l-3.353,1.259l-3.384,1.047l-3.445,0.826l-3.485,0.598l-3.525,0.386l-3.531,0.156l-3.541-0.062
	l34.272,71.917l2.416-0.92l2.479-0.679l2.55-0.446l2.58-0.189l2.574,0.049l2.563,0.29l2.525,0.542l2.471,0.773l2.368,0.999
	l2.272,1.243l2.143,1.431l1.998,1.644l1.833,1.827l1.644,1.982l1.457,2.125l1.235,2.272l1.015,2.368l0.795,2.463l0.56,2.519
	l0.308,2.559l0.062,2.579l-0.188,2.581l-0.418,2.541l-0.677,2.502l-0.905,2.417l-1.125,2.319l-1.337,2.204l-1.551,2.069
	l-1.739,1.896l-1.918,1.738l-2.078,1.549l-2.211,1.339l-2.32,1.109l-2.416,0.903l-1.612,0.449l-2.465,0.504l-2.51,0.26l-2.517,0.03
	l-2.495-0.195l-2.486-0.448l-2.431-0.66l-2.354-0.893l-2.14-1.029l-2.046-1.229l-1.937-1.398l-1.794-1.558l-1.66-1.73l-1.495-1.851
	l-1.321-1.968l-1.141-2.094l-0.339-1.289l-18.854,9.134l-94.035,45.621l-17.364,8.428l1.047,2.446l0.817,2.535l0.584,2.597
	l0.32,2.645l0.08,2.657l-0.175,2.651l-0.439,2.628l-0.677,2.581l-0.913,2.494l-1.148,2.407l-1.369,2.282l-1.582,2.147l-1.784,1.983
	l-1.951,1.801l-2.126,1.612l-2.258,1.402l-2.385,1.194l-2.479,0.944l-2.58,0.707l-2.612,0.474l-2.66,0.213l-2.62-0.039l-2.611-0.285
	l-2.564-0.519l-2.511-0.771l-2.438-0.982l-2.321-1.229l-2.203-1.415l-2.046-1.629l-1.904-1.818l-1.723-1.982l-1.534-2.132
	l-1.314-2.267l-1.102-2.368l-0.881-2.485l-0.63-2.541l-0.401-2.598l-0.165-2.611l0.078-2.628l0.339-2.59l0.582-2.565l0.803-2.502
	l0.213-0.479l1.077-2.386l1.307-2.272l1.504-2.141l1.707-1.999l1.881-1.826l2.046-1.637l2.18-1.453l2.32-1.221l-34.148-71.696
	l-2.273,2.998l-2.447,2.815l-2.644,2.661l-2.816,2.485l-2.967,2.281l-3.124,2.07l-3.257,1.861l-3.368,1.646l-3.478,1.416
	l-3.549,1.163l-3.644,0.938l-3.674,0.691l-3.738,0.434l-3.737,0.188l-3.753-0.062l-3.722-0.308l-3.706-0.558l-3.659-0.827
	l-3.61-1.046l-3.519-1.309l-3.43-1.51l-3.305-1.763l-3.188-1.977l-3.044-2.178l-2.903-2.384l-2.723-2.566l-2.565-2.754l-2.353-2.902
	l-2.156-3.077l-1.951-3.186l-1.738-3.337l-1.495-3.432l-1.275-3.532l-1.031-3.597l-0.794-3.665l-0.526-3.716l-0.292-3.737
	l-0.032-3.753l0.205-3.737l0.472-3.723l0.708-3.674l0.968-3.629l1.188-3.541l1.439-3.469l0.236-0.511l1.691-3.354l1.92-3.227
	l2.125-3.076l2.337-2.951l2.534-2.77l2.707-2.597l2.872-2.414l3.028-2.213l3.171-2.014l3.306-1.787l3.398-1.564l3.511-1.313
	l3.595-1.103l-10.331-21.622l-22.269-46.729l-23.558-49.46l-9.639,4.595l-21.079-5.365l-8.718-19.05l6.16-21.882l19.011-8.765
	l20.308,5.137l6.861,14.408l18.2-8.672l118.858-56.62l18.191-8.655l-7.364-15.421l6.86-20.466l18.403-8.553l2.195-1.016
	l20.189,8.554l9.198,19.341l-6.813,21.512l-5.5,2.612l24.755,51.931l18.853,39.594l6.594,13.824l10.183-4.846L558.281,212.125z"/>
<path fill="none" stroke="#00ADEF" stroke-width="15" stroke-linecap="round" stroke-linejoin="round" stroke-miterlimit="10" d="
	M558.281,212.126l3.321-1.85l3.446-1.613l3.541-1.385l3.643-1.133l3.691-0.897l3.753-0.63l3.791-0.385l3.802-0.134l3.8,0.148
	l3.792,0.386l3.755,0.646l3.689,0.881l3.627,1.149l3.541,1.385l3.446,1.628l3.319,1.849l3.195,2.077l3.044,2.29l2.881,2.486
	l2.714,2.675l2.51,2.849l2.322,3.014l2.108,3.156l1.903,3.305l1.66,3.415l1.433,3.534l1.195,3.627l0.93,3.673l0.691,3.754
	l0.44,3.769l0.173,3.801l-0.078,3.808l-0.323,3.801l-0.598,3.753l-0.851,3.707l-1.077,3.644l-1.338,3.564l-1.581,3.461l-1.804,3.353
	l-2.037,3.225l-0.253,0.387l-2.132,2.879l-2.319,2.746l-2.479,2.588l-2.628,2.44l-2.785,2.234l-2.936,2.077l-3.062,1.888
	l-3.154,1.677l-3.272,1.479l-3.353,1.259l-3.384,1.046l-3.445,0.826l-3.485,0.599l-3.525,0.387l-3.531,0.155l-3.541-0.062
	l34.272,71.916l2.416-0.921l2.479-0.678l2.55-0.447l2.58-0.188l2.574,0.047l2.563,0.291l2.525,0.543l2.471,0.771l2.368,0.999
	l2.272,1.244l2.143,1.431l1.998,1.645l1.833,1.825l1.644,1.983l1.457,2.124l1.235,2.272l1.015,2.368l0.795,2.464l0.56,2.519
	l0.308,2.559l0.062,2.58l-0.188,2.58l-0.418,2.542l-0.677,2.502l-0.905,2.416l-1.125,2.32l-1.337,2.203l-1.551,2.069l-1.739,1.896
	l-1.918,1.739l-2.078,1.55l-2.211,1.338l-2.32,1.108l-2.416,0.904l-1.612,0.449l-2.465,0.504l-2.51,0.259l-2.517,0.031l-2.495-0.195
	l-2.486-0.448l-2.431-0.66l-2.354-0.892l-2.14-1.029l-2.046-1.229l-1.937-1.398l-1.794-1.56l-1.66-1.73l-1.495-1.851l-1.321-1.966
	l-1.141-2.094l-0.339-1.291l-18.854,9.136l-94.035,45.621l-17.364,8.427l1.047,2.447l0.817,2.533l0.584,2.598l0.32,2.644l0.08,2.658
	l-0.175,2.652l-0.439,2.628l-0.677,2.581l-0.913,2.494l-1.148,2.407l-1.369,2.281l-1.582,2.147l-1.784,1.982l-1.951,1.803
	l-2.126,1.612l-2.258,1.401l-2.385,1.194l-2.479,0.944l-2.58,0.708l-2.612,0.474l-2.66,0.212l-2.62-0.039l-2.611-0.284l-2.563-0.521
	l-2.512-0.771l-2.438-0.984l-2.321-1.227l-2.202-1.416l-2.048-1.629l-1.903-1.817l-1.724-1.982l-1.533-2.133l-1.315-2.267
	l-1.101-2.369l-0.881-2.485l-0.63-2.54l-0.401-2.599l-0.165-2.611l0.078-2.629l0.338-2.589l0.583-2.563l0.802-2.502l0.213-0.479
	l1.078-2.385l1.307-2.273l1.503-2.142l1.708-1.998l1.881-1.825l2.046-1.637l2.18-1.455l2.32-1.22l-34.148-71.696l-2.273,2.998
	l-2.446,2.816l-2.645,2.659l-2.816,2.486l-2.967,2.281l-3.124,2.07l-3.257,1.862l-3.368,1.646l-3.478,1.415l-3.55,1.165
	l-3.643,0.937l-3.674,0.692l-3.738,0.433l-3.737,0.188l-3.753-0.062l-3.722-0.307l-3.706-0.561l-3.659-0.824l-3.61-1.048
	l-3.519-1.307l-3.43-1.51l-3.305-1.764l-3.188-1.976l-3.044-2.179l-2.903-2.384l-2.723-2.565l-2.565-2.755l-2.353-2.902
	l-2.156-3.076l-1.951-3.187l-1.738-3.337l-1.495-3.432l-1.275-3.532l-1.031-3.596l-0.794-3.667l-0.526-3.714l-0.292-3.736
	l-0.032-3.753l0.205-3.737l0.472-3.723l0.708-3.674l0.968-3.629l1.188-3.541l1.439-3.469l0.236-0.512l1.691-3.353l1.92-3.227
	l2.125-3.076l2.337-2.951l2.534-2.77l2.707-2.598l2.872-2.415l3.028-2.212l3.171-2.014l3.306-1.786l3.398-1.564l3.511-1.314
	l3.595-1.102l-10.331-21.624l-22.269-46.729l-23.558-49.46l-9.639,4.595l-21.079-5.366l-8.718-19.049l6.16-21.882l19.011-8.765
	l20.308,5.137l6.861,14.408l18.2-8.671l118.858-56.62l18.191-8.655l-7.364-15.422l6.86-20.466l18.403-8.553l2.195-1.016
	l20.189,8.553l9.198,19.342l-6.814,21.512l-5.5,2.613l24.756,51.931l18.853,39.594l6.594,13.825l10.183-4.847L558.281,212.126z"/>
<path fill="#FFFFFF" stroke="#652C90" stroke-width="5" stroke-linecap="round" stroke-linejoin="round" stroke-miterlimit="10" d="
	M558.28,212.126l3.321-1.85l3.447-1.613l3.54-1.385l3.643-1.133l3.69-0.897l3.754-0.63l3.791-0.385l3.802-0.134l3.799,0.148
	l3.794,0.386l3.753,0.646l3.691,0.881l3.627,1.149l3.54,1.385l3.447,1.628l3.317,1.849l3.196,2.077l3.044,2.29l2.882,2.486
	l2.713,2.675l2.511,2.849l2.32,3.014l2.109,3.156l1.903,3.305l1.661,3.415l1.432,3.534l1.197,3.627l0.928,3.673l0.692,3.754
	l0.439,3.769l0.174,3.801l-0.079,3.808l-0.323,3.801l-0.597,3.753l-0.851,3.707l-1.078,3.644l-1.339,3.564l-1.579,3.461
	l-1.804,3.353l-2.037,3.225l-0.252,0.387l-2.133,2.879l-2.321,2.746l-2.479,2.588l-2.628,2.44l-2.784,2.234l-2.937,2.077
	l-3.061,1.888l-3.155,1.677l-3.273,1.479l-3.352,1.259l-3.383,1.046l-3.445,0.826l-3.485,0.599l-3.526,0.387l-3.532,0.155
	l-3.539-0.062l34.271,71.916l2.418-0.921l2.479-0.678l2.548-0.447l2.582-0.188l2.574,0.047l2.562,0.291l2.524,0.543l2.472,0.771
	l2.368,0.999l2.272,1.244l2.144,1.431l1.998,1.645l1.832,1.825l1.644,1.983l1.457,2.124l1.235,2.272l1.015,2.368l0.796,2.464
	l0.559,2.519l0.309,2.559l0.062,2.58l-0.188,2.58l-0.419,2.542l-0.676,2.502l-0.906,2.416l-1.125,2.32l-1.336,2.203l-1.552,2.069
	l-1.739,1.896l-1.919,1.739l-2.078,1.55l-2.209,1.338l-2.322,1.108l-2.414,0.904l-1.612,0.449l-2.464,0.504l-2.511,0.259
	l-2.517,0.031l-2.495-0.195l-2.486-0.448l-2.433-0.66l-2.354-0.892l-2.14-1.029l-2.045-1.229l-1.937-1.398l-1.794-1.56l-1.661-1.73
	l-1.495-1.851l-1.32-1.966l-1.141-2.094l-0.339-1.291l-18.854,9.136l-94.035,45.621l-17.364,8.427l1.05,2.447l0.814,2.533
	l0.584,2.598l0.32,2.644l0.08,2.658l-0.172,2.652l-0.442,2.628l-0.676,2.581l-0.913,2.494l-1.148,2.407l-1.368,2.281l-1.582,2.147
	l-1.786,1.982l-1.949,1.803l-2.127,1.612l-2.258,1.401l-2.385,1.194l-2.479,0.944l-2.579,0.708l-2.612,0.474l-2.662,0.212
	l-2.619-0.039l-2.612-0.284l-2.563-0.521l-2.51-0.771l-2.439-0.984l-2.319-1.227l-2.204-1.416l-2.047-1.629l-1.903-1.817
	l-1.724-1.982l-1.534-2.133l-1.313-2.267l-1.101-2.369l-0.881-2.485l-0.63-2.54l-0.403-2.599l-0.164-2.611l0.079-2.629l0.337-2.589
	l0.583-2.563l0.802-2.502l0.214-0.479l1.078-2.385l1.306-2.273l1.503-2.142l1.708-1.998l1.881-1.825l2.047-1.637l2.179-1.455
	l2.321-1.22L403.34,402.45l-2.276,2.998l-2.445,2.816l-2.644,2.659l-2.818,2.486l-2.967,2.281l-3.124,2.07l-3.257,1.862
	l-3.368,1.646l-3.478,1.415l-3.547,1.165l-3.646,0.937l-3.673,0.692l-3.737,0.433l-3.737,0.188l-3.753-0.062l-3.723-0.307
	l-3.707-0.561l-3.658-0.824l-3.611-1.048l-3.518-1.307l-3.432-1.51l-3.304-1.764l-3.188-1.976l-3.044-2.179l-2.903-2.384
	l-2.723-2.565l-2.565-2.755l-2.354-2.902l-2.155-3.076l-1.952-3.187l-1.738-3.337l-1.495-3.432l-1.274-3.532l-1.029-3.596
	l-0.794-3.667l-0.529-3.714l-0.291-3.736l-0.031-3.753l0.203-3.737l0.473-3.723l0.709-3.674l0.969-3.629l1.187-3.541l1.441-3.469
	l0.235-0.512l1.69-3.353l1.921-3.227l2.125-3.076l2.335-2.951l2.535-2.77l2.705-2.598l2.872-2.415l3.03-2.212l3.171-2.014
	l3.306-1.786l3.397-1.564l3.51-1.314l3.596-1.102l-10.332-21.624l-22.268-46.729l-23.559-49.46l-9.639,4.595l-21.079-5.366
	l-8.718-19.049l6.162-21.882l19.008-8.765l20.31,5.137l6.861,14.408l18.2-8.671l118.857-56.62l18.191-8.655l-7.364-15.422
	l6.861-20.466l18.403-8.553l2.194-1.016l20.188,8.553l9.198,19.342l-6.813,21.512l-5.5,2.613l24.755,51.931l18.853,39.594
	l6.593,13.825l10.184-4.847L558.28,212.126z"/>
<text transform="matrix(1 0 0 1 15.4451 575.8689)" font-family="'Comfortaa-Bold'" font-size="24.5979">Nieuwmarkt 4</text>
<text transform="matrix(1 0 0 1 181.1926 575.8689)" font-family="'Comfortaa-Light'" font-size="24.5979">, 1012CR Amsterdam</text>
<line fill="none" stroke="#000000" stroke-width="2" stroke-linecap="round" stroke-linejoin="round" stroke-miterlimit="10" x1="29.445" y1="585.14" x2="387.445" y2="585.14"/>
</svg>
