<?xml version="1.0" encoding="utf-8"?>
<!-- Generator: Adobe Illustrator 16.0.4, SVG Export Plug-In . SVG Version: 6.00 Build 0)  -->
<!DOCTYPE svg PUBLIC "-//W3C//DTD SVG 1.1//EN" "http://www.w3.org/Graphics/SVG/1.1/DTD/svg11.dtd">
<svg version="1.1" id="Layer_1" xmlns="http://www.w3.org/2000/svg" xmlns:xlink="http://www.w3.org/1999/xlink" x="0px" y="0px"
	 width="595.279px" height="841.891px" viewBox="0 0 595.279 841.891" enable-background="new 0 0 595.279 841.891"
	 xml:space="preserve">
<g>
	<path fill="none" stroke="#ED1C24" stroke-width="55" stroke-linecap="round" stroke-linejoin="round" stroke-miterlimit="10" d="
		M434.242,308.466l4.222-2.352l4.383-2.051l4.503-1.76l4.632-1.44l4.692-1.141l4.771-0.801l4.819-0.489l4.836-0.17l4.83,0.188
		l4.821,0.491l4.773,0.822l4.689,1.12l4.611,1.461l4.502,1.76l4.383,2.07l4.221,2.351l4.062,2.641l3.871,2.912l3.663,3.161
		l3.449,3.401l3.19,3.622l2.952,3.832l2.682,4.013l2.419,4.202l2.111,4.342l1.822,4.494l1.52,4.611l1.184,4.67l0.879,4.773
		l0.559,4.792l0.222,4.833l-0.1,4.841l-0.412,4.833l-0.761,4.771l-1.08,4.713l-1.37,4.632l-1.7,4.532l-2.011,4.4l-2.294,4.262
		l-2.59,4.1l-0.32,0.492l-2.712,3.66l-2.946,3.492l-3.154,3.29l-3.34,3.104l-3.541,2.841l-3.732,2.642l-3.894,2.399l-4.012,2.132
		l-4.158,1.881l-4.266,1.602l-4.301,1.33l-4.38,1.05l-4.434,0.762l-4.481,0.492l-4.49,0.197l-4.502-0.078l43.576,91.434l3.072-1.169
		l3.15-0.861l3.243-0.568l3.28-0.241l3.271,0.062l3.259,0.369l3.211,0.688l3.142,0.983l3.013,1.269l2.889,1.582l2.724,1.82
		l2.541,2.089l2.332,2.321l2.088,2.522l1.854,2.699l1.571,2.891l1.288,3.011l1.012,3.134l0.713,3.201l0.39,3.253l0.08,3.279
		l-0.238,3.28l-0.53,3.23l-0.862,3.182l-1.149,3.074l-1.431,2.947l-1.701,2.805l-1.972,2.63l-2.21,2.411l-2.438,2.212l-2.643,1.97
		l-2.812,1.701l-2.949,1.41l-3.072,1.148l-2.051,0.571l-3.135,0.641l-3.19,0.328l-3.198,0.04l-3.174-0.249l-3.161-0.567
		l-3.089-0.839l-2.995-1.136l-2.719-1.31l-2.604-1.562l-2.461-1.779l-2.282-1.979l-2.109-2.2l-1.9-2.354l-1.681-2.5l-1.45-2.662
		l-0.43-1.639l-23.972,11.613l-119.561,58.001l-22.077,10.716l1.331,3.108l1.039,3.224l0.741,3.304l0.407,3.359l0.104,3.38
		l-0.224,3.37l-0.559,3.342l-0.86,3.283l-1.161,3.171l-1.459,3.06l-1.741,2.903l-2.012,2.729l-2.269,2.521l-2.481,2.292
		l-2.702,2.049l-2.87,1.783l-3.032,1.52l-3.151,1.199l-3.279,0.899l-3.321,0.601l-3.382,0.273l-3.332-0.051l-3.319-0.361
		l-3.261-0.661l-3.192-0.98l-3.099-1.252l-2.952-1.56l-2.801-1.8l-2.603-2.071l-2.421-2.312l-2.19-2.521l-1.95-2.71l-1.671-2.883
		l-1.401-3.013l-1.12-3.158l-0.801-3.23l-0.51-3.303l-0.21-3.32l0.099-3.343l0.431-3.292l0.74-3.261l1.021-3.183l0.271-0.607
		l1.369-3.034l1.662-2.891l1.912-2.723l2.17-2.54l2.391-2.321l2.603-2.081l2.771-1.849l2.95-1.552l-43.417-91.156l-2.892,3.812
		l-3.11,3.579l-3.361,3.384l-3.581,3.159l-3.771,2.899l-3.973,2.632l-4.141,2.367l-4.283,2.094l-4.421,1.802l-4.512,1.479
		l-4.632,1.192l-4.671,0.876l-4.753,0.554l-4.753,0.239l-4.771-0.08l-4.732-0.394l-4.712-0.71l-4.651-1.05l-4.591-1.329
		l-4.474-1.664l-4.361-1.919l-4.201-2.24l-4.055-2.514l-3.87-2.769l-3.69-3.032l-3.462-3.263l-3.262-3.502l-2.991-3.689
		l-2.741-3.911l-2.481-4.051l-2.21-4.244l-1.9-4.362l-1.622-4.489l-1.312-4.574l-1.009-4.658l-0.669-4.724l-0.372-4.75l-0.041-4.773
		l0.261-4.751l0.601-4.732l0.899-4.672l1.23-4.612l1.511-4.503l1.83-4.41l0.3-0.65l2.15-4.263l2.44-4.102l2.702-3.912l2.972-3.752
		l3.222-3.521l3.442-3.301l3.65-3.07l3.852-2.813l4.03-2.562l4.203-2.271l4.321-1.989l4.464-1.671l4.57-1.4l-13.135-27.492
		l-28.313-59.414l-29.952-62.885l-12.255,5.842l-26.8-6.823L39.32,265.877l7.832-27.821l24.171-11.144l25.82,6.531l8.724,18.319
		l23.14-11.024l151.121-71.988l23.13-11.005l-9.363-19.608l8.723-26.021l23.398-10.875l2.791-1.291l25.67,10.875l11.693,24.59
		l-8.661,27.351l-6.993,3.323l31.474,66.026l23.971,50.341l8.385,17.578l12.944-6.162L434.242,308.466z"/>
	<path fill="none" stroke="#FBAF3F" stroke-width="45" stroke-linecap="round" stroke-linejoin="round" stroke-miterlimit="10" d="
		M434.242,308.466l4.222-2.352l4.383-2.051l4.503-1.76l4.632-1.44l4.692-1.141l4.771-0.801l4.819-0.489l4.836-0.17l4.83,0.188
		l4.821,0.491l4.773,0.822l4.689,1.12l4.611,1.461l4.502,1.76l4.383,2.07l4.221,2.351l4.062,2.641l3.871,2.912l3.663,3.161
		l3.449,3.401l3.19,3.622l2.952,3.832l2.682,4.013l2.419,4.202l2.111,4.342l1.822,4.494l1.52,4.611l1.184,4.67l0.879,4.773
		l0.559,4.792l0.222,4.833l-0.1,4.841l-0.412,4.833l-0.761,4.771l-1.08,4.713l-1.37,4.632l-1.7,4.532l-2.011,4.4l-2.294,4.262
		l-2.59,4.1l-0.32,0.492l-2.712,3.66l-2.946,3.492l-3.154,3.29l-3.34,3.104l-3.541,2.841l-3.732,2.642l-3.894,2.399l-4.012,2.132
		l-4.158,1.881l-4.266,1.602l-4.301,1.33l-4.38,1.05l-4.434,0.762l-4.481,0.492l-4.49,0.197l-4.502-0.078l43.576,91.434l3.072-1.169
		l3.15-0.861l3.243-0.568l3.28-0.241l3.271,0.062l3.259,0.369l3.211,0.688l3.142,0.983l3.013,1.269l2.889,1.582l2.724,1.82
		l2.541,2.089l2.332,2.321l2.088,2.522l1.854,2.699l1.571,2.891l1.288,3.011l1.012,3.134l0.713,3.201l0.39,3.253l0.08,3.279
		l-0.238,3.28l-0.53,3.23l-0.862,3.182l-1.149,3.074l-1.431,2.947l-1.701,2.805l-1.972,2.63l-2.21,2.411l-2.438,2.212l-2.643,1.97
		l-2.812,1.701l-2.949,1.41l-3.072,1.148l-2.051,0.571l-3.135,0.641l-3.19,0.328l-3.198,0.04l-3.174-0.249l-3.161-0.567
		l-3.089-0.839l-2.995-1.136l-2.719-1.31l-2.604-1.562l-2.461-1.779l-2.282-1.979l-2.109-2.2l-1.9-2.354l-1.681-2.5l-1.45-2.662
		l-0.43-1.639l-23.972,11.613l-119.561,58.001l-22.077,10.716l1.331,3.108l1.039,3.224l0.741,3.304l0.407,3.359l0.104,3.38
		l-0.224,3.37l-0.559,3.342l-0.86,3.283l-1.161,3.171l-1.459,3.06l-1.741,2.903l-2.012,2.729l-2.269,2.521l-2.481,2.292
		l-2.702,2.049l-2.87,1.783l-3.032,1.52l-3.151,1.199l-3.279,0.899l-3.321,0.601l-3.382,0.273l-3.332-0.051l-3.319-0.361
		l-3.261-0.661l-3.192-0.98l-3.099-1.252l-2.952-1.56l-2.801-1.8l-2.603-2.071l-2.421-2.312l-2.19-2.521l-1.95-2.71l-1.671-2.883
		l-1.401-3.013l-1.12-3.158l-0.801-3.23l-0.51-3.303l-0.21-3.32l0.099-3.343l0.431-3.292l0.74-3.261l1.021-3.183l0.271-0.607
		l1.369-3.034l1.662-2.891l1.912-2.723l2.17-2.54l2.391-2.321l2.603-2.081l2.771-1.849l2.95-1.552l-43.417-91.156l-2.892,3.812
		l-3.11,3.579l-3.361,3.384l-3.581,3.159l-3.771,2.899l-3.973,2.632l-4.141,2.367l-4.283,2.094l-4.421,1.802l-4.512,1.479
		l-4.632,1.192l-4.671,0.876l-4.753,0.554l-4.753,0.239l-4.771-0.08l-4.732-0.394l-4.712-0.71l-4.651-1.05l-4.591-1.329
		l-4.474-1.664l-4.361-1.919l-4.201-2.24l-4.055-2.514l-3.87-2.769l-3.69-3.032l-3.462-3.263l-3.262-3.502l-2.991-3.689
		l-2.741-3.911l-2.481-4.051l-2.21-4.244l-1.9-4.362l-1.622-4.489l-1.312-4.574l-1.009-4.658l-0.669-4.724l-0.372-4.75l-0.041-4.773
		l0.261-4.751l0.601-4.732l0.899-4.672l1.23-4.612l1.511-4.503l1.83-4.41l0.3-0.65l2.15-4.263l2.44-4.102l2.702-3.912l2.972-3.752
		l3.222-3.521l3.442-3.301l3.65-3.07l3.852-2.813l4.03-2.562l4.203-2.271l4.321-1.989l4.464-1.671l4.57-1.4l-13.135-27.492
		l-28.313-59.414l-29.952-62.885l-12.255,5.842l-26.8-6.823L39.32,265.877l7.832-27.821l24.171-11.144l25.82,6.531l8.724,18.319
		l23.14-11.024l151.121-71.988l23.13-11.005l-9.363-19.608l8.723-26.021l23.398-10.875l2.791-1.291l25.67,10.875l11.693,24.59
		l-8.661,27.351l-6.993,3.323l31.474,66.026l23.971,50.341l8.385,17.578l12.944-6.162L434.242,308.466z"/>
	<path fill="none" stroke="#FFF100" stroke-width="35" stroke-linecap="round" stroke-linejoin="round" stroke-miterlimit="10" d="
		M434.242,308.465l4.222-2.352l4.383-2.051l4.503-1.761l4.632-1.44l4.692-1.141l4.771-0.801l4.819-0.49l4.836-0.169l4.83,0.189
		l4.821,0.49l4.773,0.822l4.689,1.12l4.611,1.461l4.502,1.761l4.383,2.071l4.221,2.351l4.062,2.642l3.871,2.912l3.663,3.161
		l3.449,3.401l3.19,3.622l2.952,3.832l2.682,4.013l2.419,4.202l2.111,4.342l1.822,4.492l1.52,4.611l1.184,4.67l0.879,4.773
		l0.559,4.792l0.222,4.833l-0.1,4.841l-0.412,4.831l-0.761,4.772l-1.08,4.713l-1.37,4.631l-1.7,4.532l-2.011,4.4l-2.294,4.264
		l-2.59,4.1l-0.32,0.491l-2.712,3.662l-2.946,3.491l-3.154,3.291l-3.34,3.104l-3.541,2.842l-3.732,2.641l-3.894,2.4l-4.012,2.131
		l-4.158,1.881l-4.266,1.602l-4.301,1.331l-4.38,1.05l-4.434,0.76l-4.481,0.491l-4.49,0.198l-4.502-0.078l43.576,91.438l3.072-1.17
		l3.15-0.863l3.243-0.566l3.28-0.24l3.271,0.062l3.259,0.368l3.211,0.689l3.142,0.983l3.013,1.269l2.889,1.582l2.724,1.817
		l2.541,2.091l2.332,2.322l2.088,2.521l1.854,2.701l1.571,2.891l1.288,3.011l1.012,3.132l0.713,3.203l0.39,3.253l0.08,3.277
		l-0.238,3.283l-0.53,3.23l-0.862,3.182l-1.149,3.071l-1.431,2.95l-1.701,2.802l-1.972,2.632l-2.21,2.411l-2.438,2.21l-2.643,1.97
		l-2.812,1.701l-2.949,1.41l-3.072,1.148l-2.051,0.571l-3.135,0.641l-3.19,0.331l-3.198,0.037l-3.174-0.249l-3.161-0.567
		l-3.089-0.839l-2.995-1.136l-2.719-1.31l-2.604-1.562l-2.461-1.777l-2.282-1.981l-2.109-2.2l-1.9-2.352l-1.681-2.503l-1.45-2.662
		l-0.43-1.639l-23.972,11.613l-119.561,58.001l-22.077,10.716l1.331,3.108l1.039,3.224l0.741,3.304l0.407,3.362l0.104,3.377
		l-0.224,3.372l-0.559,3.34l-0.86,3.283l-1.161,3.171l-1.459,3.06l-1.741,2.903l-2.012,2.729l-2.269,2.523l-2.481,2.289
		l-2.702,2.049l-2.87,1.783l-3.032,1.52l-3.151,1.199l-3.279,0.899l-3.321,0.604l-3.382,0.271l-3.332-0.051l-3.319-0.361
		l-3.261-0.661l-3.192-0.98l-3.099-1.249l-2.952-1.562l-2.801-1.8l-2.603-2.071l-2.421-2.312l-2.19-2.521l-1.95-2.71l-1.671-2.883
		l-1.401-3.011l-1.12-3.16l-0.801-3.23l-0.51-3.303l-0.21-3.32l0.099-3.34l0.431-3.293l0.74-3.263l1.021-3.183l0.271-0.607
		l1.369-3.034l1.662-2.888l1.912-2.723l2.17-2.543l2.391-2.322l2.603-2.08l2.771-1.849l2.95-1.552l-43.417-91.156l-2.892,3.812
		l-3.11,3.579l-3.361,3.384l-3.581,3.159l-3.771,2.899l-3.973,2.632l-4.141,2.367l-4.283,2.094l-4.421,1.802l-4.512,1.479
		l-4.632,1.192l-4.671,0.879l-4.753,0.551l-4.753,0.239l-4.771-0.08l-4.732-0.391l-4.712-0.71l-4.651-1.051l-4.591-1.331
		l-4.474-1.664l-4.361-1.919l-4.201-2.241l-4.055-2.513l-3.87-2.769l-3.69-3.032l-3.462-3.263l-3.262-3.502l-2.991-3.689
		l-2.741-3.911l-2.481-4.051l-2.21-4.244l-1.9-4.362l-1.622-4.489l-1.312-4.574l-1.009-4.658l-0.669-4.726l-0.372-4.751
		l-0.041-4.772l0.261-4.751l0.601-4.733l0.899-4.671l1.23-4.613l1.511-4.502l1.83-4.41l0.3-0.649l2.15-4.264l2.44-4.104l2.702-3.911
		l2.972-3.752l3.222-3.521l3.442-3.302l3.65-3.069l3.852-2.812l4.03-2.561l4.203-2.273l4.321-1.987l4.464-1.67l4.57-1.402
		l-13.135-27.491l-28.313-59.414l-29.952-62.885l-12.255,5.842l-26.8-6.821L39.32,265.877l7.832-27.821l24.171-11.144l25.82,6.531
		l8.724,18.319l23.14-11.026l151.121-71.988l23.13-11.005l-9.363-19.606l8.723-26.021l23.398-10.874l2.791-1.292l25.67,10.875
		l11.693,24.59l-8.661,27.351l-6.993,3.321l31.474,66.026l23.971,50.34l8.385,17.577l12.944-6.161L434.242,308.465z"/>
	<path fill="none" stroke="#38B449" stroke-width="25" stroke-linecap="round" stroke-linejoin="round" stroke-miterlimit="10" d="
		M434.242,308.465l4.222-2.352l4.383-2.051l4.503-1.761l4.632-1.44l4.692-1.141l4.771-0.801l4.819-0.49l4.836-0.169l4.83,0.189
		l4.821,0.49l4.773,0.822l4.689,1.12l4.611,1.461l4.502,1.761l4.383,2.071l4.221,2.351l4.062,2.642l3.871,2.912l3.663,3.161
		l3.449,3.401l3.19,3.622l2.952,3.832l2.682,4.013l2.419,4.202l2.111,4.342l1.822,4.492l1.52,4.611l1.184,4.67l0.879,4.773
		l0.559,4.792l0.222,4.833l-0.1,4.841l-0.412,4.831l-0.761,4.772l-1.08,4.713l-1.37,4.631l-1.7,4.532l-2.011,4.4l-2.294,4.264
		l-2.59,4.1l-0.32,0.491l-2.712,3.662l-2.946,3.491l-3.154,3.291l-3.34,3.104l-3.541,2.842l-3.732,2.641l-3.894,2.4l-4.012,2.131
		l-4.158,1.881l-4.266,1.602l-4.301,1.331l-4.38,1.05l-4.434,0.76l-4.481,0.491l-4.49,0.198l-4.502-0.078l43.576,91.438l3.072-1.17
		l3.15-0.863l3.243-0.566l3.28-0.24l3.271,0.062l3.259,0.368l3.211,0.689l3.142,0.983l3.013,1.269l2.889,1.582l2.724,1.817
		l2.541,2.091l2.332,2.322l2.088,2.521l1.854,2.701l1.571,2.891l1.288,3.011l1.012,3.132l0.713,3.203l0.39,3.253l0.08,3.277
		l-0.238,3.283l-0.53,3.23l-0.862,3.182l-1.149,3.071l-1.431,2.95l-1.701,2.802l-1.972,2.632l-2.21,2.411l-2.438,2.21l-2.643,1.97
		l-2.812,1.701l-2.949,1.41l-3.072,1.148l-2.051,0.571l-3.135,0.641l-3.19,0.331l-3.198,0.037l-3.174-0.249l-3.161-0.567
		l-3.089-0.839l-2.995-1.136l-2.719-1.31l-2.604-1.562l-2.461-1.777l-2.282-1.981l-2.109-2.2l-1.9-2.352l-1.681-2.503l-1.45-2.662
		l-0.43-1.639l-23.972,11.613l-119.561,58.001l-22.077,10.716l1.331,3.108l1.039,3.224l0.741,3.304l0.407,3.362l0.104,3.377
		l-0.224,3.372l-0.559,3.34l-0.86,3.283l-1.161,3.171l-1.459,3.06l-1.741,2.903l-2.012,2.729l-2.269,2.523l-2.481,2.289
		l-2.702,2.049l-2.87,1.783l-3.032,1.52l-3.151,1.199l-3.279,0.899l-3.321,0.604l-3.382,0.271l-3.332-0.051l-3.319-0.361
		l-3.261-0.661l-3.192-0.98l-3.099-1.249l-2.952-1.562l-2.801-1.8l-2.603-2.071l-2.421-2.312l-2.19-2.521l-1.95-2.71l-1.671-2.883
		l-1.401-3.011l-1.12-3.16l-0.801-3.23l-0.51-3.303l-0.21-3.32l0.099-3.34l0.431-3.293l0.74-3.263l1.021-3.183l0.271-0.607
		l1.369-3.034l1.662-2.888l1.912-2.723l2.17-2.543l2.391-2.322l2.603-2.08l2.771-1.849l2.95-1.552l-43.417-91.156l-2.892,3.812
		l-3.11,3.579l-3.361,3.384l-3.581,3.159l-3.771,2.899l-3.973,2.632l-4.141,2.367l-4.283,2.094l-4.421,1.802l-4.512,1.479
		l-4.632,1.192l-4.671,0.879l-4.753,0.551l-4.753,0.239l-4.771-0.08l-4.732-0.391l-4.712-0.71l-4.651-1.051l-4.591-1.331
		l-4.474-1.664l-4.361-1.919l-4.201-2.241l-4.055-2.513l-3.87-2.769l-3.69-3.032l-3.462-3.263l-3.262-3.502l-2.991-3.689
		l-2.741-3.911l-2.481-4.051l-2.21-4.244l-1.9-4.362l-1.622-4.489l-1.312-4.574l-1.009-4.658l-0.669-4.726l-0.372-4.751
		l-0.041-4.772l0.261-4.751l0.601-4.733l0.899-4.671l1.23-4.613l1.511-4.502l1.83-4.41l0.3-0.649l2.15-4.264l2.44-4.104l2.702-3.911
		l2.972-3.752l3.222-3.521l3.442-3.302l3.65-3.069l3.852-2.812l4.03-2.561l4.203-2.273l4.321-1.987l4.464-1.67l4.57-1.402
		l-13.135-27.491l-28.313-59.414l-29.952-62.885l-12.255,5.842l-26.8-6.821L39.32,265.877l7.832-27.821l24.171-11.144l25.82,6.531
		l8.724,18.319l23.14-11.026l151.121-71.988l23.13-11.005l-9.363-19.606l8.723-26.021l23.398-10.874l2.791-1.292l25.67,10.875
		l11.693,24.59l-8.661,27.351l-6.993,3.321l31.474,66.026l23.971,50.34l8.385,17.577l12.944-6.161L434.242,308.465z"/>
	<path fill="none" stroke="#00ADEF" stroke-width="15" stroke-linecap="round" stroke-linejoin="round" stroke-miterlimit="10" d="
		M434.242,308.466l4.222-2.352l4.383-2.051l4.503-1.76l4.632-1.44l4.692-1.141l4.771-0.801l4.819-0.489l4.836-0.17l4.83,0.188
		l4.821,0.491l4.773,0.822l4.689,1.12l4.611,1.461l4.502,1.76l4.383,2.07l4.221,2.351l4.062,2.641l3.871,2.912l3.663,3.161
		l3.449,3.401l3.19,3.622l2.952,3.832l2.682,4.013l2.419,4.202l2.111,4.342l1.822,4.494l1.52,4.611l1.184,4.67l0.879,4.773
		l0.559,4.792l0.222,4.833l-0.1,4.841l-0.412,4.833l-0.761,4.771l-1.08,4.713l-1.37,4.632l-1.7,4.532l-2.011,4.4l-2.294,4.262
		l-2.59,4.1l-0.32,0.492l-2.712,3.66l-2.946,3.492l-3.154,3.29l-3.34,3.104l-3.541,2.841l-3.732,2.642l-3.894,2.399l-4.012,2.132
		l-4.158,1.881l-4.266,1.602l-4.301,1.33l-4.38,1.05l-4.434,0.762l-4.481,0.492l-4.49,0.197l-4.502-0.078l43.576,91.437l3.072-1.172
		l3.15-0.861l3.243-0.568l3.28-0.238l3.271,0.061l3.259,0.37l3.211,0.689l3.142,0.98l3.013,1.269l2.889,1.582l2.724,1.82
		l2.541,2.091l2.332,2.319l2.088,2.522l1.854,2.699l1.571,2.891l1.288,3.011l1.012,3.134l0.713,3.201l0.39,3.253l0.08,3.279
		l-0.238,3.28l-0.53,3.233l-0.862,3.182l-1.149,3.071l-1.431,2.95l-1.701,2.802l-1.972,2.63l-2.21,2.411l-2.438,2.212l-2.643,1.97
		l-2.812,1.701l-2.949,1.41l-3.072,1.148l-2.051,0.571l-3.135,0.642l-3.19,0.327l-3.198,0.04l-3.174-0.249l-3.161-0.567
		l-3.089-0.839l-2.995-1.136l-2.719-1.31l-2.604-1.562l-2.461-1.777l-2.282-1.981l-2.109-2.2l-1.9-2.354l-1.681-2.498l-1.45-2.662
		l-0.43-1.641l-23.972,11.614l-119.561,58l-22.077,10.716l1.331,3.11l1.039,3.222l0.741,3.304l0.407,3.359l0.104,3.38l-0.224,3.372
		l-0.559,3.343l-0.86,3.28l-1.161,3.171l-1.459,3.062l-1.741,2.901l-2.012,2.729l-2.269,2.521l-2.481,2.292l-2.702,2.052l-2.87,1.78
		l-3.032,1.52l-3.151,1.199l-3.279,0.901l-3.321,0.602l-3.382,0.271l-3.332-0.051l-3.319-0.361l-3.26-0.661l-3.193-0.98
		l-3.099-1.252l-2.952-1.56l-2.8-1.8l-2.604-2.071l-2.42-2.31l-2.191-2.521l-1.949-2.712l-1.673-2.883l-1.398-3.013l-1.12-3.158
		l-0.801-3.23l-0.51-3.303l-0.21-3.32l0.099-3.343l0.43-3.292l0.741-3.259l1.02-3.182l0.271-0.61l1.371-3.031l1.662-2.891
		l1.911-2.723l2.172-2.541l2.391-2.32l2.603-2.081l2.771-1.852l2.95-1.549l-43.417-91.159l-2.892,3.812l-3.109,3.581l-3.362,3.382
		l-3.581,3.162l-3.771,2.899l-3.973,2.632l-4.141,2.367l-4.283,2.095l-4.421,1.8l-4.513,1.479l-4.631,1.191l-4.671,0.88
		l-4.758,0.551l-4.752,0.238l-4.771-0.079l-4.732-0.391l-4.712-0.713l-4.652-1.048l-4.59-1.331l-4.474-1.661l-4.361-1.92
		l-4.202-2.243l-4.054-2.513l-3.87-2.77l-3.69-3.031l-3.462-3.261l-3.263-3.504l-2.99-3.69l-2.741-3.911l-2.481-4.05l-2.21-4.244
		l-1.9-4.363l-1.622-4.488l-1.312-4.572l-1.009-4.663l-0.669-4.721l-0.372-4.751l-0.041-4.772l0.261-4.751l0.601-4.733l0.899-4.671
		l1.23-4.613l1.511-4.502l1.83-4.41l0.3-0.65l2.15-4.263l2.44-4.104l2.702-3.911l2.971-3.753l3.223-3.521l3.441-3.303l3.651-3.071
		l3.851-2.812l4.031-2.561l4.203-2.271l4.321-1.988l4.464-1.671l4.57-1.4l-13.136-27.494l-28.312-59.412l-29.952-62.885
		l-12.255,5.842l-26.8-6.823l-11.084-24.219l7.832-27.821l24.171-11.144l25.819,6.531l8.725,18.319l23.14-11.024l151.121-71.988
		l23.129-11.005l-9.362-19.608l8.723-26.021l23.397-10.875l2.791-1.291l25.671,10.874l11.695,24.592l-8.664,27.351l-6.991,3.323
		l31.475,66.026l23.971,50.341l8.384,17.578l12.945-6.162L434.242,308.466z"/>
	
		<path fill="#FFFFFF" stroke="#652C90" stroke-width="5" stroke-linecap="round" stroke-linejoin="round" stroke-miterlimit="10" d="
		M434.239,308.466l4.225-2.352l4.383-2.051l4.5-1.76l4.632-1.44l4.692-1.141l4.772-0.801l4.819-0.489l4.833-0.17l4.829,0.188
		l4.825,0.491l4.771,0.822l4.692,1.12l4.611,1.461l4.502,1.76l4.383,2.07l4.217,2.351l4.065,2.641l3.869,2.912l3.665,3.161
		l3.448,3.401l3.191,3.622l2.95,3.832l2.682,4.013l2.421,4.202l2.111,4.342l1.82,4.494l1.521,4.611l1.181,4.67l0.882,4.773
		l0.559,4.792l0.221,4.833l-0.102,4.841l-0.409,4.833l-0.761,4.771l-1.08,4.713l-1.37,4.632l-1.704,4.532l-2.007,4.4l-2.294,4.262
		l-2.59,4.1l-0.32,0.492l-2.712,3.66l-2.95,3.492l-3.152,3.29l-3.342,3.104l-3.541,2.841l-3.731,2.642l-3.892,2.399l-4.014,2.132
		l-4.161,1.881l-4.262,1.602l-4.301,1.33l-4.381,1.05l-4.431,0.762l-4.484,0.492l-4.489,0.197l-4.5-0.078l43.571,91.437l3.073-1.172
		l3.154-0.861l3.238-0.568l3.281-0.238l3.273,0.061l3.258,0.37l3.211,0.689l3.143,0.98l3.012,1.269l2.888,1.582l2.728,1.82
		l2.541,2.091l2.329,2.319l2.089,2.522l1.853,2.699l1.571,2.891l1.289,3.011l1.013,3.134l0.711,3.201l0.393,3.253l0.08,3.279
		l-0.241,3.28l-0.531,3.233l-0.859,3.182l-1.151,3.071l-1.431,2.95l-1.698,2.802l-1.975,2.63l-2.21,2.411l-2.44,2.212l-2.644,1.97
		l-2.809,1.701l-2.952,1.41l-3.069,1.148l-2.049,0.571l-3.134,0.642l-3.191,0.327l-3.199,0.04l-3.173-0.249l-3.16-0.567
		l-3.095-0.839l-2.991-1.136l-2.721-1.31l-2.6-1.562l-2.464-1.777l-2.279-1.981l-2.113-2.2l-1.898-2.354l-1.679-2.498l-1.45-2.662
		l-0.434-1.641l-23.971,11.614l-119.558,58l-22.077,10.716l1.334,3.11l1.036,3.222l0.742,3.304l0.406,3.359l0.103,3.38l-0.218,3.372
		l-0.562,3.343l-0.859,3.28l-1.16,3.171l-1.461,3.062l-1.738,2.901l-2.012,2.729l-2.271,2.521l-2.479,2.292l-2.704,2.052l-2.87,1.78
		l-3.032,1.52l-3.151,1.199l-3.278,0.901l-3.321,0.602l-3.385,0.271l-3.33-0.051l-3.321-0.361l-3.259-0.661l-3.191-0.98
		l-3.102-1.252l-2.949-1.56l-2.802-1.8l-2.604-2.071l-2.42-2.31l-2.191-2.521l-1.95-2.712l-1.671-2.883l-1.398-3.013l-1.12-3.158
		l-0.801-3.23l-0.513-3.303l-0.208-3.32l0.101-3.343l0.428-3.292l0.741-3.259l1.02-3.182l0.272-0.61l1.371-3.031l1.66-2.891
		l1.911-2.723l2.172-2.541l2.391-2.32l2.604-2.081l2.77-1.852l2.952-1.549l-43.417-91.159l-2.895,3.812l-3.108,3.581l-3.361,3.382
		l-3.583,3.162l-3.771,2.899l-3.973,2.632l-4.141,2.367l-4.282,2.095l-4.421,1.8l-4.51,1.479l-4.635,1.191l-4.67,0.88l-4.757,0.551
		l-4.751,0.238l-4.771-0.079l-4.733-0.391l-4.713-0.713l-4.651-1.048l-4.592-1.331l-4.472-1.661l-4.363-1.92l-4.2-2.243
		l-4.054-2.513l-3.87-2.77l-3.69-3.031l-3.461-3.261l-3.263-3.504l-2.993-3.69l-2.739-3.911l-2.482-4.05l-2.21-4.244l-1.901-4.363
		l-1.62-4.488l-1.31-4.572l-1.009-4.663l-0.673-4.721l-0.37-4.751l-0.04-4.772l0.258-4.751l0.602-4.733l0.9-4.671l1.232-4.613
		l1.508-4.502l1.833-4.41l0.299-0.65l2.149-4.263l2.441-4.104l2.702-3.911l2.969-3.753l3.224-3.521l3.438-3.303l3.652-3.071
		l3.853-2.812l4.032-2.561l4.203-2.271l4.32-1.988l4.462-1.671l4.572-1.4l-13.138-27.494l-28.312-59.412l-29.953-62.885
		l-12.255,5.842l-26.801-6.823l-11.084-24.219l7.834-27.821l24.167-11.144l25.821,6.531l8.725,18.319l23.14-11.024l151.119-71.988
		l23.129-11.005l-9.363-19.608l8.726-26.021l23.397-10.875l2.79-1.291l25.669,10.874l11.693,24.592l-8.662,27.351l-6.993,3.323
		l31.475,66.026l23.971,50.341l8.381,17.578l12.948-6.162L434.239,308.466z"/>
</g>
<text transform="matrix(1 0 0 1 24.5789 807.8643)" font-family="'Comfortaa-Bold'" font-size="24.5979">Nieuwmarkt 4</text>
<text transform="matrix(1 0 0 1 190.3269 807.8643)" font-family="'Comfortaa-Light'" font-size="24.5979">, 1012CR Amsterdam</text>
<line fill="none" stroke="#000000" stroke-width="2" stroke-linecap="round" stroke-linejoin="round" stroke-miterlimit="10" x1="27.247" y1="817.135" x2="420.344" y2="817.135"/>
<line fill="none" stroke="#000000" stroke-width="2" stroke-linecap="round" stroke-linejoin="round" stroke-miterlimit="10" x1="26.497" y1="817.135" x2="419.594" y2="817.135"/>
</svg>
